name ../Passive_Flexion/flexion_ang.mot
datacolumns   7
datarows 83
range   10.00000000 10.82000000
cursor 1.0 1.0 0.0
keys m_key
wrap
enforce_loops no
enforce_constraints no
calc_derivatives -1.000000
event_color 0.000000 0.000000 0.000000
endheader
            time     knee_angle_r       knee_add_r       knee_rot_r        knee_tx_r        knee_ty_r        knee_tz_r 
     10.00000000     -34.54915028       0.00000000       0.00000000      -0.00600000      -0.45000000       0.00000000 
     10.01000000     -34.62386512       0.00000000       0.00000000      -0.00600000      -0.45000000       0.00000000 
     10.02000000     -34.69861789       0.00000000       0.00000000      -0.00600000      -0.45000000       0.00000000 
     10.03000000     -34.77340842       0.00000000       0.00000000      -0.00600000      -0.45000000       0.00000000 
     10.04000000     -34.84823652       0.00000000       0.00000000      -0.00600000      -0.45000000       0.00000000 
     10.05000000     -34.92310200       0.00000000       0.00000000      -0.00600000      -0.45000000       0.00000000 
     10.06000000     -34.99800469       0.00000000       0.00000000      -0.00600000      -0.45000000       0.00000000 
     10.07000000     -35.07294439       0.00000000       0.00000000      -0.00600000      -0.45000000       0.00000000 
     10.08000000     -35.14792092       0.00000000       0.00000000      -0.00600000      -0.45000000       0.00000000 
     10.09000000     -35.22293410       0.00000000       0.00000000      -0.00600000      -0.45000000       0.00000000 
     10.10000000     -35.29798374       0.00000000       0.00000000      -0.00600000      -0.45000000       0.00000000 
     10.11000000     -35.37306965       0.00000000       0.00000000      -0.00600000      -0.45000000       0.00000000 
     10.12000000     -35.44819166       0.00000000       0.00000000      -0.00600000      -0.45000000       0.00000000 
     10.13000000     -35.52334957       0.00000000       0.00000000      -0.00600000      -0.45000000       0.00000000 
     10.14000000     -35.59854320       0.00000000       0.00000000      -0.00600000      -0.45000000       0.00000000 
     10.15000000     -35.67377236       0.00000000       0.00000000      -0.00600000      -0.45000000       0.00000000 
     10.16000000     -35.74903688       0.00000000       0.00000000      -0.00600000      -0.45000000       0.00000000 
     10.17000000     -35.82433655       0.00000000       0.00000000      -0.00600000      -0.45000000       0.00000000 
     10.18000000     -35.89967120       0.00000000       0.00000000      -0.00600000      -0.45000000       0.00000000 
     10.19000000     -35.97504065       0.00000000       0.00000000      -0.00600000      -0.45000000       0.00000000 
     10.20000000     -36.05044470       0.00000000       0.00000000      -0.00600000      -0.45000000       0.00000000 
     10.21000000     -36.12588317       0.00000000       0.00000000      -0.00600000      -0.45000000       0.00000000 
     10.22000000     -36.20135587       0.00000000       0.00000000      -0.00600000      -0.45000000       0.00000000 
     10.23000000     -36.27686262       0.00000000       0.00000000      -0.00600000      -0.45000000       0.00000000 
     10.24000000     -36.35240322       0.00000000       0.00000000      -0.00600000      -0.45000000       0.00000000 
     10.25000000     -36.42797751       0.00000000       0.00000000      -0.00600000      -0.45000000       0.00000000 
     10.26000000     -36.50358528       0.00000000       0.00000000      -0.00600000      -0.45000000       0.00000000 
     10.27000000     -36.57922635       0.00000000       0.00000000      -0.00600000      -0.45000000       0.00000000 
     10.28000000     -36.65490053       0.00000000       0.00000000      -0.00600000      -0.45000000       0.00000000 
     10.29000000     -36.73060765       0.00000000       0.00000000      -0.00600000      -0.45000000       0.00000000 
     10.30000000     -36.80634750       0.00000000       0.00000000      -0.00600000      -0.45000000       0.00000000 
     10.31000000     -36.88211991       0.00000000       0.00000000      -0.00600000      -0.45000000       0.00000000 
     10.32000000     -36.95792469       0.00000000       0.00000000      -0.00600000      -0.45000000       0.00000000 
     10.33000000     -37.03376164       0.00000000       0.00000000      -0.00600000      -0.45000000       0.00000000 
     10.34000000     -37.10963059       0.00000000       0.00000000      -0.00600000      -0.45000000       0.00000000 
     10.35000000     -37.18553134       0.00000000       0.00000000      -0.00600000      -0.45000000       0.00000000 
     10.36000000     -37.26146372       0.00000000       0.00000000      -0.00600000      -0.45000000       0.00000000 
     10.37000000     -37.33742752       0.00000000       0.00000000      -0.00600000      -0.45000000       0.00000000 
     10.38000000     -37.41342257       0.00000000       0.00000000      -0.00600000      -0.45000000       0.00000000 
     10.39000000     -37.48944867       0.00000000       0.00000000      -0.00600000      -0.45000000       0.00000000 
     10.40000000     -37.56550564       0.00000000       0.00000000      -0.00600000      -0.45000000       0.00000000 
     10.41000000     -37.64159329       0.00000000       0.00000000      -0.00600000      -0.45000000       0.00000000 
     10.42000000     -37.71771144       0.00000000       0.00000000      -0.00600000      -0.45000000       0.00000000 
     10.43000000     -37.79385989       0.00000000       0.00000000      -0.00600000      -0.45000000       0.00000000 
     10.44000000     -37.87003846       0.00000000       0.00000000      -0.00600000      -0.45000000       0.00000000 
     10.45000000     -37.94624696       0.00000000       0.00000000      -0.00600000      -0.45000000       0.00000000 
     10.46000000     -38.02248520       0.00000000       0.00000000      -0.00600000      -0.45000000       0.00000000 
     10.47000000     -38.09875299       0.00000000       0.00000000      -0.00600000      -0.45000000       0.00000000 
     10.48000000     -38.17505015       0.00000000       0.00000000      -0.00600000      -0.45000000       0.00000000 
     10.49000000     -38.25137648       0.00000000       0.00000000      -0.00600000      -0.45000000       0.00000000 
     10.50000000     -38.32773181       0.00000000       0.00000000      -0.00600000      -0.45000000       0.00000000 
     10.51000000     -38.40411593       0.00000000       0.00000000      -0.00600000      -0.45000000       0.00000000 
     10.52000000     -38.48052867       0.00000000       0.00000000      -0.00600000      -0.45000000       0.00000000 
     10.53000000     -38.55696982       0.00000000       0.00000000      -0.00600000      -0.45000000       0.00000000 
     10.54000000     -38.63343922       0.00000000       0.00000000      -0.00600000      -0.45000000       0.00000000 
     10.55000000     -38.70993666       0.00000000       0.00000000      -0.00600000      -0.45000000       0.00000000 
     10.56000000     -38.78646195       0.00000000       0.00000000      -0.00600000      -0.45000000       0.00000000 
     10.57000000     -38.86301492       0.00000000       0.00000000      -0.00600000      -0.45000000       0.00000000 
     10.58000000     -38.93959536       0.00000000       0.00000000      -0.00600000      -0.45000000       0.00000000 
     10.59000000     -39.01620309       0.00000000       0.00000000      -0.00600000      -0.45000000       0.00000000 
     10.60000000     -39.09283793       0.00000000       0.00000000      -0.00600000      -0.45000000       0.00000000 
     10.61000000     -39.16949968       0.00000000       0.00000000      -0.00600000      -0.45000000       0.00000000 
     10.62000000     -39.24618815       0.00000000       0.00000000      -0.00600000      -0.45000000       0.00000000 
     10.63000000     -39.32290315       0.00000000       0.00000000      -0.00600000      -0.45000000       0.00000000 
     10.64000000     -39.39964450       0.00000000       0.00000000      -0.00600000      -0.45000000       0.00000000 
     10.65000000     -39.47641201       0.00000000       0.00000000      -0.00600000      -0.45000000       0.00000000 
     10.66000000     -39.55320548       0.00000000       0.00000000      -0.00600000      -0.45000000       0.00000000 
     10.67000000     -39.63002473       0.00000000       0.00000000      -0.00600000      -0.45000000       0.00000000 
     10.68000000     -39.70686956       0.00000000       0.00000000      -0.00600000      -0.45000000       0.00000000 
     10.69000000     -39.78373979       0.00000000       0.00000000      -0.00600000      -0.45000000       0.00000000 
     10.70000000     -39.86063523       0.00000000       0.00000000      -0.00600000      -0.45000000       0.00000000 
     10.71000000     -39.93755569       0.00000000       0.00000000      -0.00600000      -0.45000000       0.00000000 
     10.72000000     -40.01450097       0.00000000       0.00000000      -0.00600000      -0.45000000       0.00000000 
     10.73000000     -40.09147090       0.00000000       0.00000000      -0.00600000      -0.45000000       0.00000000 
     10.74000000     -40.16846527       0.00000000       0.00000000      -0.00600000      -0.45000000       0.00000000 
     10.75000000     -40.24548390       0.00000000       0.00000000      -0.00600000      -0.45000000       0.00000000 
     10.76000000     -40.32252660       0.00000000       0.00000000      -0.00600000      -0.45000000       0.00000000 
     10.77000000     -40.39959317       0.00000000       0.00000000      -0.00600000      -0.45000000       0.00000000 
     10.78000000     -40.47668344       0.00000000       0.00000000      -0.00600000      -0.45000000       0.00000000 
     10.79000000     -40.55379720       0.00000000       0.00000000      -0.00600000      -0.45000000       0.00000000 
     10.80000000     -40.63093427       0.00000000       0.00000000      -0.00600000      -0.45000000       0.00000000 
     10.81000000     -40.70809446       0.00000000       0.00000000      -0.00600000      -0.45000000       0.00000000 
     10.82000000     -40.78527757       0.00000000       0.00000000      -0.00600000      -0.45000000       0.00000000 
